<svg xmlns="http://www.w3.org/2000/svg" viewBox="0 0 512 512" role="img" aria-label="Reviewer matching icon">
  <defs>
    <linearGradient id="bgGradient" x1="0%" y1="12%" x2="100%" y2="88%">
      <stop offset="0%" stop-color="#3846FF" />
      <stop offset="50%" stop-color="#5E44FF" />
      <stop offset="100%" stop-color="#9334FF" />
    </linearGradient>
    <radialGradient id="glowGradient" cx="50%" cy="42%" r="58%">
      <stop offset="0%" stop-color="#FFFFFF" stop-opacity="0.35" />
      <stop offset="100%" stop-color="#FFFFFF" stop-opacity="0" />
    </radialGradient>
    <linearGradient id="cardLeftGradient" x1="24%" y1="16%" x2="88%" y2="100%">
      <stop offset="0%" stop-color="#F4F6FF" />
      <stop offset="100%" stop-color="#C9D4FF" />
    </linearGradient>
    <linearGradient id="cardRightGradient" x1="18%" y1="4%" x2="86%" y2="92%">
      <stop offset="0%" stop-color="#E9ECFF" />
      <stop offset="100%" stop-color="#B9C6FF" />
    </linearGradient>
    <linearGradient id="avatarGradient" x1="16%" y1="0%" x2="86%" y2="100%">
      <stop offset="0%" stop-color="#7381FF" />
      <stop offset="100%" stop-color="#4B5EFF" />
    </linearGradient>
    <linearGradient id="checkGradient" x1="0%" y1="0%" x2="100%" y2="100%">
      <stop offset="0%" stop-color="#2DE2C2" />
      <stop offset="100%" stop-color="#1BCB7F" />
    </linearGradient>
    <linearGradient id="connectorGradient" x1="12%" y1="20%" x2="88%" y2="80%">
      <stop offset="0%" stop-color="#94A3FF" stop-opacity="0.7" />
      <stop offset="100%" stop-color="#EEF1FF" stop-opacity="0.5" />
    </linearGradient>
  </defs>
  <g fill="none" fill-rule="evenodd">
    <circle cx="256" cy="256" r="232" fill="url(#bgGradient)" />
    <circle cx="256" cy="220" r="210" fill="url(#glowGradient)" />
    <g>
      <rect x="116" y="148" width="150" height="196" rx="28" fill="url(#cardLeftGradient)" opacity="0.95" />
      <rect x="246" y="168" width="150" height="196" rx="28" fill="url(#cardRightGradient)" opacity="0.96" />
      <circle cx="191" cy="210" r="42" fill="url(#avatarGradient)" />
      <path d="M140 320c6-38 35-66 71-66s65 28 71 66v16c0 12-9 22-21 22h-100c-12 0-21-10-21-22z" fill="#DEE6FF" />
      <circle cx="321" cy="232" r="38" fill="url(#avatarGradient)" />
      <path d="M278 326c5-34 30-58 58-58s53 24 58 58v14c0 11-8 20-19 20h-78c-11 0-19-9-19-20z" fill="#D3DDFF" />
      <path d="M170 338c26 22 59 34 94 34s68-12 94-34" fill="none" stroke="url(#connectorGradient)" stroke-width="18" stroke-linecap="round" stroke-linejoin="round" />
      <path d="M204 320l60 62l102-118" fill="none" stroke="url(#checkGradient)" stroke-width="26" stroke-linecap="round" stroke-linejoin="round" />
      <circle cx="204" cy="320" r="18" fill="#2DE2C2" opacity="0.8" />
      <circle cx="366" cy="262" r="16" fill="#1BCB7F" opacity="0.85" />
    </g>
    <circle cx="256" cy="256" r="232" stroke="rgba(255,255,255,0.32)" stroke-width="8" />
  </g>
</svg>
